# xmcd CD database file
#
# Track frame offsets:
#	187
#	17700
#	31225
#	42725
#	55887
#	68325
#	81262
#	94337
#	106812
#
# Disc length: 1728 seconds
#
# Revision: 3
# Processed by: cddbd v1.5PL3 Copyright (c) Steve Scherf et al.
# Submitted via: CDex 1.51
#
DISCID=6d06be09
DTITLE=Omar And The Howlers - I Told You So
DYEAR=1984
DGENRE=Blues
TTITLE0=Border Girl
TTITLE1=Give Me A Chance
TTITLE2=Shake For Me
TTITLE3=Magic Man
TTITLE4=Rocket To Nowhere
TTITLE5=I Told You So
TTITLE6=Ice Cold Woman
TTITLE7=I´m Wise To You Baby
TTITLE8=East Side Blues
EXTD=YEAR: 1984
EXTT0=
EXTT1=
EXTT2=
EXTT3=
EXTT4=
EXTT5=
EXTT6=
EXTT7=
EXTT8=
PLAYORDER=
